<svg xmlns="http://www.w3.org/2000/svg" xmlns:xlink="http://www.w3.org/1999/xlink" width="918" height="358" viewBox="0 0 918 358">
  <defs>
    <filter id="NoPath_-_Copy_3_" x="96" y="137" width="130" height="127" filterUnits="userSpaceOnUse">
      <feOffset dy="3" input="SourceAlpha"/>
      <feGaussianBlur stdDeviation="3" result="blur"/>
      <feFlood flood-opacity="0.071"/>
      <feComposite operator="in" in2="blur"/>
      <feComposite in="SourceGraphic"/>
    </filter>
    <filter id="Ellipse_13" x="220" y="40" width="151" height="151" filterUnits="userSpaceOnUse">
      <feOffset dy="3" input="SourceAlpha"/>
      <feGaussianBlur stdDeviation="3" result="blur-2"/>
      <feFlood flood-opacity="0.161"/>
      <feComposite operator="in" in2="blur-2"/>
      <feComposite in="SourceGraphic"/>
    </filter>
    <filter id="Ellipse_14" x="239" y="234" width="100" height="100" filterUnits="userSpaceOnUse">
      <feOffset dy="3" input="SourceAlpha"/>
      <feGaussianBlur stdDeviation="3" result="blur-3"/>
      <feFlood flood-opacity="0.161"/>
      <feComposite operator="in" in2="blur-3"/>
      <feComposite in="SourceGraphic"/>
    </filter>
    <filter id="Ellipse_15" x="368" y="137" width="183" height="183" filterUnits="userSpaceOnUse">
      <feOffset dy="3" input="SourceAlpha"/>
      <feGaussianBlur stdDeviation="3" result="blur-4"/>
      <feFlood flood-opacity="0.161"/>
      <feComposite operator="in" in2="blur-4"/>
      <feComposite in="SourceGraphic"/>
    </filter>
    <filter id="Ellipse_16" x="502" y="46" width="115" height="115" filterUnits="userSpaceOnUse">
      <feOffset dy="3" input="SourceAlpha"/>
      <feGaussianBlur stdDeviation="3" result="blur-5"/>
      <feFlood flood-opacity="0.161"/>
      <feComposite operator="in" in2="blur-5"/>
      <feComposite in="SourceGraphic"/>
    </filter>
    <filter id="Ellipse_17" x="566" y="178" width="155" height="155" filterUnits="userSpaceOnUse">
      <feOffset dy="3" input="SourceAlpha"/>
      <feGaussianBlur stdDeviation="3" result="blur-6"/>
      <feFlood flood-opacity="0.161"/>
      <feComposite operator="in" in2="blur-6"/>
      <feComposite in="SourceGraphic"/>
    </filter>
    <filter id="Ellipse_18" x="676" y="50" width="141" height="141" filterUnits="userSpaceOnUse">
      <feOffset dy="3" input="SourceAlpha"/>
      <feGaussianBlur stdDeviation="3" result="blur-7"/>
      <feFlood flood-opacity="0.161"/>
      <feComposite operator="in" in2="blur-7"/>
      <feComposite in="SourceGraphic"/>
    </filter>
    <clipPath id="clip-background1">
      <rect width="918" height="358"/>
    </clipPath>
  </defs>
  <g id="background1" clip-path="url(#clip-background1)">
    <rect width="918" height="358" fill="#fff"/>
    <rect id="Rectangle_25" data-name="Rectangle 25" width="918" height="358" fill="#b93332"/>
    <g transform="matrix(1, 0, 0, 1, 0, 0)" filter="url(#NoPath_-_Copy_3_)">
      <rect id="NoPath_-_Copy_3_2" data-name="NoPath - Copy (3)" width="112" height="109" rx="54.5" transform="translate(105 143)" fill="#c55555"/>
    </g>
    <g transform="matrix(1, 0, 0, 1, 0, 0)" filter="url(#Ellipse_13)">
      <circle id="Ellipse_13-2" data-name="Ellipse 13" cx="66.5" cy="66.5" r="66.5" transform="translate(229 46)" fill="#fff" opacity="0.17"/>
    </g>
    <g transform="matrix(1, 0, 0, 1, 0, 0)" filter="url(#Ellipse_14)">
      <circle id="Ellipse_14-2" data-name="Ellipse 14" cx="41" cy="41" r="41" transform="translate(248 240)" fill="#fff" opacity="0.17"/>
    </g>
    <g transform="matrix(1, 0, 0, 1, 0, 0)" filter="url(#Ellipse_15)">
      <circle id="Ellipse_15-2" data-name="Ellipse 15" cx="82.5" cy="82.5" r="82.5" transform="translate(377 143)" fill="#fff" opacity="0.17"/>
    </g>
    <g transform="matrix(1, 0, 0, 1, 0, 0)" filter="url(#Ellipse_16)">
      <circle id="Ellipse_16-2" data-name="Ellipse 16" cx="48.5" cy="48.5" r="48.5" transform="translate(511 52)" fill="#fff" opacity="0.17"/>
    </g>
    <g transform="matrix(1, 0, 0, 1, 0, 0)" filter="url(#Ellipse_17)">
      <circle id="Ellipse_17-2" data-name="Ellipse 17" cx="68.5" cy="68.5" r="68.5" transform="translate(575 184)" fill="#fff" opacity="0.17"/>
    </g>
    <g transform="matrix(1, 0, 0, 1, 0, 0)" filter="url(#Ellipse_18)">
      <circle id="Ellipse_18-2" data-name="Ellipse 18" cx="61.5" cy="61.5" r="61.5" transform="translate(685 56)" fill="#fff" opacity="0.17"/>
    </g>
    <path id="Path_14" data-name="Path 14" d="M12.605,13.619a5.518,5.518,0,0,1-2.558.533A4.183,4.183,0,0,1,6.874,12.9,4.556,4.556,0,0,1,5.68,9.62,4.779,4.779,0,0,1,7.023,6.091a4.593,4.593,0,0,1,3.393-1.346,5.56,5.56,0,0,1,2.19.375v1.5a3.908,3.908,0,0,0-2.031-.546,3.188,3.188,0,0,0-2.4.946,3.474,3.474,0,0,0-.917,2.526,3.313,3.313,0,0,0,.857,2.4,2.982,2.982,0,0,0,2.253.892,4.035,4.035,0,0,0,2.234-.609Zm4.443.533a3.222,3.222,0,0,1-2.4-.911,3.29,3.29,0,0,1-.9-2.415,3.424,3.424,0,0,1,.936-2.558,3.443,3.443,0,0,1,2.523-.92,3.118,3.118,0,0,1,2.374.9,3.457,3.457,0,0,1,.851,2.482,3.407,3.407,0,0,1-.917,2.491A3.3,3.3,0,0,1,17.049,14.152Zm.07-5.63a1.681,1.681,0,0,0-1.365.6,2.525,2.525,0,0,0-.5,1.663A2.378,2.378,0,0,0,15.76,12.4a1.706,1.706,0,0,0,1.358.587,1.618,1.618,0,0,0,1.336-.578,2.557,2.557,0,0,0,.467-1.644,2.6,2.6,0,0,0-.467-1.657A1.611,1.611,0,0,0,17.119,8.522ZM21.524,13.8V12.432a2.938,2.938,0,0,0,1.822.628q1.333,0,1.333-.787a.62.62,0,0,0-.114-.378,1.091,1.091,0,0,0-.308-.276A2.42,2.42,0,0,0,23.8,11.4q-.263-.1-.587-.216a6.216,6.216,0,0,1-.72-.336,2.177,2.177,0,0,1-.533-.4,1.522,1.522,0,0,1-.321-.511,1.882,1.882,0,0,1-.108-.667,1.54,1.54,0,0,1,.222-.828,1.931,1.931,0,0,1,.6-.6,2.861,2.861,0,0,1,.851-.368,3.894,3.894,0,0,1,.984-.124,4.473,4.473,0,0,1,1.612.273V8.909a2.718,2.718,0,0,0-1.574-.47,2.056,2.056,0,0,0-.5.057,1.3,1.3,0,0,0-.384.159.781.781,0,0,0-.248.244A.583.583,0,0,0,23,9.214a.671.671,0,0,0,.089.355.807.807,0,0,0,.263.257,2.275,2.275,0,0,0,.419.2q.244.092.562.2a8.208,8.208,0,0,1,.752.349,2.542,2.542,0,0,1,.568.4,1.58,1.58,0,0,1,.362.521,1.767,1.767,0,0,1,.127.7,1.6,1.6,0,0,1-.229.863,1.9,1.9,0,0,1-.609.609,2.853,2.853,0,0,1-.879.359,4.567,4.567,0,0,1-1.051.117A4.426,4.426,0,0,1,21.524,13.8Zm9.439.133a2.552,2.552,0,0,1-1.136.216q-1.892,0-1.892-1.815V8.655H26.85V7.5h1.085V6l1.473-.419V7.5h1.555V8.655H29.408v3.25a1.281,1.281,0,0,0,.209.825.87.87,0,0,0,.7.248,1.012,1.012,0,0,0,.647-.216Zm1.879.209a.911.911,0,0,1-.647-.251.8.8,0,0,1-.267-.6.812.812,0,0,1,.267-.609.9.9,0,0,1,.647-.254.923.923,0,0,1,.657.254.807.807,0,0,1,.27.609.791.791,0,0,1-.27.6A.93.93,0,0,1,32.842,14.14Zm0-5.021a.911.911,0,0,1-.647-.251.8.8,0,0,1-.267-.6.812.812,0,0,1,.267-.609.9.9,0,0,1,.647-.254.923.923,0,0,1,.657.254.807.807,0,0,1,.27.609.791.791,0,0,1-.27.6A.93.93,0,0,1,32.842,9.119Zm9.045-4.424V14H40.415V6.5a4.691,4.691,0,0,1-.86.486,7.09,7.09,0,0,1-1.051.352V6.078q.368-.121.711-.254t.676-.3q.333-.165.673-.368t.7-.463Zm4.837,9.458a2.542,2.542,0,0,1-2.219-1.162,5.92,5.92,0,0,1-.8-3.358,6.569,6.569,0,0,1,.832-3.65,2.714,2.714,0,0,1,2.4-1.238q3,0,3,4.666a6.142,6.142,0,0,1-.847,3.526A2.727,2.727,0,0,1,46.724,14.152Zm.146-8.233q-1.657,0-1.657,3.65,0,3.415,1.625,3.415,1.6,0,1.6-3.472Q48.438,5.919,46.87,5.919Zm7.071,8.233a2.542,2.542,0,0,1-2.219-1.162,5.92,5.92,0,0,1-.8-3.358,6.569,6.569,0,0,1,.832-3.65,2.714,2.714,0,0,1,2.4-1.238q3,0,3,4.666a6.142,6.142,0,0,1-.847,3.526A2.727,2.727,0,0,1,53.941,14.152Zm.146-8.233q-1.657,0-1.657,3.65,0,3.415,1.625,3.415,1.6,0,1.6-3.472Q55.655,5.919,54.087,5.919Zm7.071,8.233a2.542,2.542,0,0,1-2.219-1.162,5.92,5.92,0,0,1-.8-3.358,6.569,6.569,0,0,1,.832-3.65,2.714,2.714,0,0,1,2.4-1.238q3,0,3,4.666a6.142,6.142,0,0,1-.847,3.526A2.727,2.727,0,0,1,61.159,14.152ZM61.3,5.919q-1.657,0-1.657,3.65,0,3.415,1.625,3.415,1.6,0,1.6-3.472Q62.873,5.919,61.3,5.919Z" transform="translate(261 185)" fill="#fff"/>
    <path id="Path_15" data-name="Path 15" d="M12.605,13.619a5.518,5.518,0,0,1-2.558.533A4.183,4.183,0,0,1,6.874,12.9,4.556,4.556,0,0,1,5.68,9.62,4.779,4.779,0,0,1,7.023,6.091a4.593,4.593,0,0,1,3.393-1.346,5.56,5.56,0,0,1,2.19.375v1.5a3.908,3.908,0,0,0-2.031-.546,3.188,3.188,0,0,0-2.4.946,3.474,3.474,0,0,0-.917,2.526,3.313,3.313,0,0,0,.857,2.4,2.982,2.982,0,0,0,2.253.892,4.035,4.035,0,0,0,2.234-.609Zm4.443.533a3.222,3.222,0,0,1-2.4-.911,3.29,3.29,0,0,1-.9-2.415,3.424,3.424,0,0,1,.936-2.558,3.443,3.443,0,0,1,2.523-.92,3.118,3.118,0,0,1,2.374.9,3.457,3.457,0,0,1,.851,2.482,3.407,3.407,0,0,1-.917,2.491A3.3,3.3,0,0,1,17.049,14.152Zm.07-5.63a1.681,1.681,0,0,0-1.365.6,2.525,2.525,0,0,0-.5,1.663A2.378,2.378,0,0,0,15.76,12.4a1.706,1.706,0,0,0,1.358.587,1.618,1.618,0,0,0,1.336-.578,2.557,2.557,0,0,0,.467-1.644,2.6,2.6,0,0,0-.467-1.657A1.611,1.611,0,0,0,17.119,8.522ZM21.524,13.8V12.432a2.938,2.938,0,0,0,1.822.628q1.333,0,1.333-.787a.62.62,0,0,0-.114-.378,1.091,1.091,0,0,0-.308-.276A2.42,2.42,0,0,0,23.8,11.4q-.263-.1-.587-.216a6.216,6.216,0,0,1-.72-.336,2.177,2.177,0,0,1-.533-.4,1.522,1.522,0,0,1-.321-.511,1.882,1.882,0,0,1-.108-.667,1.54,1.54,0,0,1,.222-.828,1.931,1.931,0,0,1,.6-.6,2.861,2.861,0,0,1,.851-.368,3.894,3.894,0,0,1,.984-.124,4.473,4.473,0,0,1,1.612.273V8.909a2.718,2.718,0,0,0-1.574-.47,2.056,2.056,0,0,0-.5.057,1.3,1.3,0,0,0-.384.159.781.781,0,0,0-.248.244A.583.583,0,0,0,23,9.214a.671.671,0,0,0,.089.355.807.807,0,0,0,.263.257,2.275,2.275,0,0,0,.419.2q.244.092.562.2a8.208,8.208,0,0,1,.752.349,2.542,2.542,0,0,1,.568.4,1.58,1.58,0,0,1,.362.521,1.767,1.767,0,0,1,.127.7,1.6,1.6,0,0,1-.229.863,1.9,1.9,0,0,1-.609.609,2.853,2.853,0,0,1-.879.359,4.567,4.567,0,0,1-1.051.117A4.426,4.426,0,0,1,21.524,13.8Zm9.439.133a2.552,2.552,0,0,1-1.136.216q-1.892,0-1.892-1.815V8.655H26.85V7.5h1.085V6l1.473-.419V7.5h1.555V8.655H29.408v3.25a1.281,1.281,0,0,0,.209.825.87.87,0,0,0,.7.248,1.012,1.012,0,0,0,.647-.216Zm1.879.209a.911.911,0,0,1-.647-.251.8.8,0,0,1-.267-.6.812.812,0,0,1,.267-.609.9.9,0,0,1,.647-.254.923.923,0,0,1,.657.254.807.807,0,0,1,.27.609.791.791,0,0,1-.27.6A.93.93,0,0,1,32.842,14.14Zm0-5.021a.911.911,0,0,1-.647-.251.8.8,0,0,1-.267-.6.812.812,0,0,1,.267-.609.9.9,0,0,1,.647-.254.923.923,0,0,1,.657.254.807.807,0,0,1,.27.609.791.791,0,0,1-.27.6A.93.93,0,0,1,32.842,9.119Zm9.045-4.424V14H40.415V6.5a4.691,4.691,0,0,1-.86.486,7.09,7.09,0,0,1-1.051.352V6.078q.368-.121.711-.254t.676-.3q.333-.165.673-.368t.7-.463Zm4.837,9.458a2.542,2.542,0,0,1-2.219-1.162,5.92,5.92,0,0,1-.8-3.358,6.569,6.569,0,0,1,.832-3.65,2.714,2.714,0,0,1,2.4-1.238q3,0,3,4.666a6.142,6.142,0,0,1-.847,3.526A2.727,2.727,0,0,1,46.724,14.152Zm.146-8.233q-1.657,0-1.657,3.65,0,3.415,1.625,3.415,1.6,0,1.6-3.472Q48.438,5.919,46.87,5.919Zm7.071,8.233a2.542,2.542,0,0,1-2.219-1.162,5.92,5.92,0,0,1-.8-3.358,6.569,6.569,0,0,1,.832-3.65,2.714,2.714,0,0,1,2.4-1.238q3,0,3,4.666a6.142,6.142,0,0,1-.847,3.526A2.727,2.727,0,0,1,53.941,14.152Zm.146-8.233q-1.657,0-1.657,3.65,0,3.415,1.625,3.415,1.6,0,1.6-3.472Q55.655,5.919,54.087,5.919Zm7.071,8.233a2.542,2.542,0,0,1-2.219-1.162,5.92,5.92,0,0,1-.8-3.358,6.569,6.569,0,0,1,.832-3.65,2.714,2.714,0,0,1,2.4-1.238q3,0,3,4.666a6.142,6.142,0,0,1-.847,3.526A2.727,2.727,0,0,1,61.159,14.152ZM61.3,5.919q-1.657,0-1.657,3.65,0,3.415,1.625,3.415,1.6,0,1.6-3.472Q62.873,5.919,61.3,5.919Z" transform="translate(254 325)" fill="#fff"/>
    <g id="add-24px" transform="translate(651 253)">
      <path id="Path_12" data-name="Path 12" d="M0,0H29V29H0Z" fill="none"/>
    </g>
    <g id="lock-24px" transform="translate(284 101)">
      <path id="Path_20" data-name="Path 20" d="M0,0H24V24H0Z" fill="none"/>
      <path id="Path_21" data-name="Path 21" d="M18,8H17V6A5,5,0,0,0,7,6V8H6a2.006,2.006,0,0,0-2,2V20a2.006,2.006,0,0,0,2,2H18a2.006,2.006,0,0,0,2-2V10A2.006,2.006,0,0,0,18,8Zm-6,9a2,2,0,1,1,2-2A2.006,2.006,0,0,1,12,17Zm3.1-9H8.9V6a3.1,3.1,0,0,1,6.2,0Z" fill="#fff"/>
    </g>
    <g id="lock-24px-2" data-name="lock-24px" transform="translate(277 270)">
      <path id="Path_20-2" data-name="Path 20" d="M0,0H24V24H0Z" fill="none"/>
      <path id="Path_21-2" data-name="Path 21" d="M18,8H17V6A5,5,0,0,0,7,6V8H6a2.006,2.006,0,0,0-2,2V20a2.006,2.006,0,0,0,2,2H18a2.006,2.006,0,0,0,2-2V10A2.006,2.006,0,0,0,18,8Zm-6,9a2,2,0,1,1,2-2A2.006,2.006,0,0,1,12,17Zm3.1-9H8.9V6a3.1,3.1,0,0,1,6.2,0Z" fill="#fff"/>
    </g>
    <g id="lock-24px-3" data-name="lock-24px" transform="translate(447 214)">
      <path id="Path_20-3" data-name="Path 20" d="M0,0H24V24H0Z" fill="none"/>
      <path id="Path_21-3" data-name="Path 21" d="M18,8H17V6A5,5,0,0,0,7,6V8H6a2.006,2.006,0,0,0-2,2V20a2.006,2.006,0,0,0,2,2H18a2.006,2.006,0,0,0,2-2V10A2.006,2.006,0,0,0,18,8Zm-6,9a2,2,0,1,1,2-2A2.006,2.006,0,0,1,12,17Zm3.1-9H8.9V6a3.1,3.1,0,0,1,6.2,0Z" fill="#fff"/>
    </g>
    <g id="lock-24px-4" data-name="lock-24px" transform="translate(548 89)">
      <path id="Path_20-4" data-name="Path 20" d="M0,0H24V24H0Z" fill="none"/>
      <path id="Path_21-4" data-name="Path 21" d="M18,8H17V6A5,5,0,0,0,7,6V8H6a2.006,2.006,0,0,0-2,2V20a2.006,2.006,0,0,0,2,2H18a2.006,2.006,0,0,0,2-2V10A2.006,2.006,0,0,0,18,8Zm-6,9a2,2,0,1,1,2-2A2.006,2.006,0,0,1,12,17Zm3.1-9H8.9V6a3.1,3.1,0,0,1,6.2,0Z" fill="#fff"/>
    </g>
    <g id="lock-24px-5" data-name="lock-24px" transform="translate(632 240)">
      <path id="Path_20-5" data-name="Path 20" d="M0,0H24V24H0Z" fill="none"/>
      <path id="Path_21-5" data-name="Path 21" d="M18,8H17V6A5,5,0,0,0,7,6V8H6a2.006,2.006,0,0,0-2,2V20a2.006,2.006,0,0,0,2,2H18a2.006,2.006,0,0,0,2-2V10A2.006,2.006,0,0,0,18,8Zm-6,9a2,2,0,1,1,2-2A2.006,2.006,0,0,1,12,17Zm3.1-9H8.9V6a3.1,3.1,0,0,1,6.2,0Z" fill="#fff"/>
    </g>
    <g id="lock-24px-6" data-name="lock-24px" transform="translate(735 106)">
      <path id="Path_20-6" data-name="Path 20" d="M0,0H24V24H0Z" fill="none"/>
      <path id="Path_21-6" data-name="Path 21" d="M18,8H17V6A5,5,0,0,0,7,6V8H6a2.006,2.006,0,0,0-2,2V20a2.006,2.006,0,0,0,2,2H18a2.006,2.006,0,0,0,2-2V10A2.006,2.006,0,0,0,18,8Zm-6,9a2,2,0,1,1,2-2A2.006,2.006,0,0,1,12,17Zm3.1-9H8.9V6a3.1,3.1,0,0,1,6.2,0Z" fill="#fff"/>
    </g>
    <path id="Path_22" data-name="Path 22" d="M11.612,13.619a5.518,5.518,0,0,1-2.558.533A4.183,4.183,0,0,1,5.88,12.9,4.556,4.556,0,0,1,4.687,9.62,4.779,4.779,0,0,1,6.029,6.091,4.593,4.593,0,0,1,9.422,4.745a5.56,5.56,0,0,1,2.19.375v1.5a3.908,3.908,0,0,0-2.031-.546,3.188,3.188,0,0,0-2.4.946,3.474,3.474,0,0,0-.917,2.526,3.313,3.313,0,0,0,.857,2.4,2.982,2.982,0,0,0,2.253.892,4.035,4.035,0,0,0,2.234-.609Zm4.443.533a3.222,3.222,0,0,1-2.4-.911,3.29,3.29,0,0,1-.9-2.415,3.424,3.424,0,0,1,.936-2.558,3.443,3.443,0,0,1,2.523-.92,3.118,3.118,0,0,1,2.374.9,3.457,3.457,0,0,1,.851,2.482,3.407,3.407,0,0,1-.917,2.491A3.3,3.3,0,0,1,16.055,14.152Zm.07-5.63a1.681,1.681,0,0,0-1.365.6,2.525,2.525,0,0,0-.5,1.663,2.378,2.378,0,0,0,.508,1.609,1.706,1.706,0,0,0,1.358.587,1.618,1.618,0,0,0,1.336-.578,2.557,2.557,0,0,0,.467-1.644,2.6,2.6,0,0,0-.467-1.657A1.611,1.611,0,0,0,16.125,8.522ZM20.531,13.8V12.432a2.938,2.938,0,0,0,1.822.628q1.333,0,1.333-.787a.62.62,0,0,0-.114-.378,1.091,1.091,0,0,0-.308-.276,2.42,2.42,0,0,0-.457-.216q-.263-.1-.587-.216a6.216,6.216,0,0,1-.72-.336,2.177,2.177,0,0,1-.533-.4,1.522,1.522,0,0,1-.321-.511,1.882,1.882,0,0,1-.108-.667,1.54,1.54,0,0,1,.222-.828,1.931,1.931,0,0,1,.6-.6,2.861,2.861,0,0,1,.851-.368,3.894,3.894,0,0,1,.984-.124,4.473,4.473,0,0,1,1.612.273V8.909a2.718,2.718,0,0,0-1.574-.47,2.056,2.056,0,0,0-.5.057,1.3,1.3,0,0,0-.384.159.781.781,0,0,0-.248.244A.583.583,0,0,0,22,9.214a.671.671,0,0,0,.089.355.807.807,0,0,0,.263.257,2.275,2.275,0,0,0,.419.2q.244.092.562.2a8.208,8.208,0,0,1,.752.349,2.542,2.542,0,0,1,.568.4,1.58,1.58,0,0,1,.362.521,1.767,1.767,0,0,1,.127.7,1.6,1.6,0,0,1-.229.863,1.9,1.9,0,0,1-.609.609,2.853,2.853,0,0,1-.879.359,4.567,4.567,0,0,1-1.051.117A4.426,4.426,0,0,1,20.531,13.8Zm9.439.133a2.552,2.552,0,0,1-1.136.216q-1.892,0-1.892-1.815V8.655H25.856V7.5h1.085V6l1.473-.419V7.5h1.555V8.655H28.414v3.25a1.281,1.281,0,0,0,.209.825.87.87,0,0,0,.7.248,1.012,1.012,0,0,0,.647-.216Zm1.879.209a.911.911,0,0,1-.647-.251.8.8,0,0,1-.267-.6.812.812,0,0,1,.267-.609.9.9,0,0,1,.647-.254.923.923,0,0,1,.657.254.807.807,0,0,1,.27.609.791.791,0,0,1-.27.6A.93.93,0,0,1,31.848,14.14Zm0-5.021a.911.911,0,0,1-.647-.251.8.8,0,0,1-.267-.6.812.812,0,0,1,.267-.609.9.9,0,0,1,.647-.254.923.923,0,0,1,.657.254.807.807,0,0,1,.27.609.791.791,0,0,1-.27.6A.93.93,0,0,1,31.848,9.119ZM43.325,14H37.612v-.7a2.646,2.646,0,0,1,.121-.809,3.274,3.274,0,0,1,.324-.711,3.961,3.961,0,0,1,.476-.628q.273-.3.584-.571t.635-.533q.324-.257.635-.517.292-.248.533-.486a3.242,3.242,0,0,0,.413-.492,2.227,2.227,0,0,0,.267-.536,1.906,1.906,0,0,0,.1-.613,1.651,1.651,0,0,0-.111-.632,1.228,1.228,0,0,0-.311-.451,1.328,1.328,0,0,0-.473-.273,1.857,1.857,0,0,0-.6-.092,2.752,2.752,0,0,0-1.136.26,3.889,3.889,0,0,0-1.111.781V5.577a4.643,4.643,0,0,1,.565-.365,3.85,3.85,0,0,1,.59-.26,3.639,3.639,0,0,1,.641-.156,4.809,4.809,0,0,1,.717-.051,3.625,3.625,0,0,1,1.117.162,2.378,2.378,0,0,1,.857.476,2.092,2.092,0,0,1,.549.784,2.813,2.813,0,0,1,.194,1.079,3.356,3.356,0,0,1-.136.993,3.215,3.215,0,0,1-.387.822,4.265,4.265,0,0,1-.606.724q-.355.343-.793.7-.368.3-.733.581t-.657.552a3.083,3.083,0,0,0-.473.54.967.967,0,0,0-.181.543v.032h4.107Zm4.393.152A2.542,2.542,0,0,1,45.5,12.991a5.92,5.92,0,0,1-.8-3.358,6.569,6.569,0,0,1,.832-3.65,2.714,2.714,0,0,1,2.4-1.238q3,0,3,4.666a6.142,6.142,0,0,1-.847,3.526A2.727,2.727,0,0,1,47.718,14.152Zm.146-8.233q-1.657,0-1.657,3.65,0,3.415,1.625,3.415,1.6,0,1.6-3.472Q49.431,5.919,47.864,5.919Zm7.071,8.233a2.542,2.542,0,0,1-2.219-1.162,5.92,5.92,0,0,1-.8-3.358,6.569,6.569,0,0,1,.832-3.65,2.714,2.714,0,0,1,2.4-1.238q3,0,3,4.666a6.142,6.142,0,0,1-.847,3.526A2.727,2.727,0,0,1,54.935,14.152Zm.146-8.233q-1.657,0-1.657,3.65,0,3.415,1.625,3.415,1.6,0,1.6-3.472Q56.649,5.919,55.081,5.919Zm7.071,8.233a2.542,2.542,0,0,1-2.219-1.162,5.92,5.92,0,0,1-.8-3.358,6.569,6.569,0,0,1,.832-3.65,2.714,2.714,0,0,1,2.4-1.238q3,0,3,4.666a6.142,6.142,0,0,1-.847,3.526A2.727,2.727,0,0,1,62.152,14.152ZM62.3,5.919q-1.657,0-1.657,3.65,0,3.415,1.625,3.415,1.6,0,1.6-3.472Q63.866,5.919,62.3,5.919Z" transform="translate(424 317)" fill="#fff"/>
    <path id="Path_23" data-name="Path 23" d="M11.612,13.619a5.518,5.518,0,0,1-2.558.533A4.183,4.183,0,0,1,5.88,12.9,4.556,4.556,0,0,1,4.687,9.62,4.779,4.779,0,0,1,6.029,6.091,4.593,4.593,0,0,1,9.422,4.745a5.56,5.56,0,0,1,2.19.375v1.5a3.908,3.908,0,0,0-2.031-.546,3.188,3.188,0,0,0-2.4.946,3.474,3.474,0,0,0-.917,2.526,3.313,3.313,0,0,0,.857,2.4,2.982,2.982,0,0,0,2.253.892,4.035,4.035,0,0,0,2.234-.609Zm4.443.533a3.222,3.222,0,0,1-2.4-.911,3.29,3.29,0,0,1-.9-2.415,3.424,3.424,0,0,1,.936-2.558,3.443,3.443,0,0,1,2.523-.92,3.118,3.118,0,0,1,2.374.9,3.457,3.457,0,0,1,.851,2.482,3.407,3.407,0,0,1-.917,2.491A3.3,3.3,0,0,1,16.055,14.152Zm.07-5.63a1.681,1.681,0,0,0-1.365.6,2.525,2.525,0,0,0-.5,1.663,2.378,2.378,0,0,0,.508,1.609,1.706,1.706,0,0,0,1.358.587,1.618,1.618,0,0,0,1.336-.578,2.557,2.557,0,0,0,.467-1.644,2.6,2.6,0,0,0-.467-1.657A1.611,1.611,0,0,0,16.125,8.522ZM20.531,13.8V12.432a2.938,2.938,0,0,0,1.822.628q1.333,0,1.333-.787a.62.62,0,0,0-.114-.378,1.091,1.091,0,0,0-.308-.276,2.42,2.42,0,0,0-.457-.216q-.263-.1-.587-.216a6.216,6.216,0,0,1-.72-.336,2.177,2.177,0,0,1-.533-.4,1.522,1.522,0,0,1-.321-.511,1.882,1.882,0,0,1-.108-.667,1.54,1.54,0,0,1,.222-.828,1.931,1.931,0,0,1,.6-.6,2.861,2.861,0,0,1,.851-.368,3.894,3.894,0,0,1,.984-.124,4.473,4.473,0,0,1,1.612.273V8.909a2.718,2.718,0,0,0-1.574-.47,2.056,2.056,0,0,0-.5.057,1.3,1.3,0,0,0-.384.159.781.781,0,0,0-.248.244A.583.583,0,0,0,22,9.214a.671.671,0,0,0,.089.355.807.807,0,0,0,.263.257,2.275,2.275,0,0,0,.419.2q.244.092.562.2a8.208,8.208,0,0,1,.752.349,2.542,2.542,0,0,1,.568.4,1.58,1.58,0,0,1,.362.521,1.767,1.767,0,0,1,.127.7,1.6,1.6,0,0,1-.229.863,1.9,1.9,0,0,1-.609.609,2.853,2.853,0,0,1-.879.359,4.567,4.567,0,0,1-1.051.117A4.426,4.426,0,0,1,20.531,13.8Zm9.439.133a2.552,2.552,0,0,1-1.136.216q-1.892,0-1.892-1.815V8.655H25.856V7.5h1.085V6l1.473-.419V7.5h1.555V8.655H28.414v3.25a1.281,1.281,0,0,0,.209.825.87.87,0,0,0,.7.248,1.012,1.012,0,0,0,.647-.216Zm1.879.209a.911.911,0,0,1-.647-.251.8.8,0,0,1-.267-.6.812.812,0,0,1,.267-.609.9.9,0,0,1,.647-.254.923.923,0,0,1,.657.254.807.807,0,0,1,.27.609.791.791,0,0,1-.27.6A.93.93,0,0,1,31.848,14.14Zm0-5.021a.911.911,0,0,1-.647-.251.8.8,0,0,1-.267-.6.812.812,0,0,1,.267-.609.9.9,0,0,1,.647-.254.923.923,0,0,1,.657.254.807.807,0,0,1,.27.609.791.791,0,0,1-.27.6A.93.93,0,0,1,31.848,9.119Zm5.922,4.545V12.28a3.144,3.144,0,0,0,2.006.7,2.338,2.338,0,0,0,1.45-.413,1.33,1.33,0,0,0,.543-1.117q0-1.549-2.368-1.549h-.7V8.725h.673q2.1,0,2.1-1.46,0-1.346-1.638-1.346a2.685,2.685,0,0,0-1.72.654V5.266a4.4,4.4,0,0,1,2.19-.521,2.933,2.933,0,0,1,1.942.609,1.943,1.943,0,0,1,.73,1.562,2.225,2.225,0,0,1-1.828,2.311v.025a2.4,2.4,0,0,1,1.555.689,2.053,2.053,0,0,1,.571,1.482,2.429,2.429,0,0,1-.92,1.977,3.712,3.712,0,0,1-2.425.752A4.138,4.138,0,0,1,37.771,13.664ZM50.542,14H44.829v-.7a2.646,2.646,0,0,1,.121-.809,3.274,3.274,0,0,1,.324-.711,3.961,3.961,0,0,1,.476-.628q.273-.3.584-.571t.635-.533q.324-.257.635-.517.292-.248.533-.486a3.242,3.242,0,0,0,.413-.492,2.227,2.227,0,0,0,.267-.536,1.906,1.906,0,0,0,.1-.613,1.651,1.651,0,0,0-.111-.632,1.228,1.228,0,0,0-.311-.451,1.328,1.328,0,0,0-.473-.273,1.857,1.857,0,0,0-.6-.092,2.752,2.752,0,0,0-1.136.26,3.889,3.889,0,0,0-1.111.781V5.577a4.643,4.643,0,0,1,.565-.365,3.85,3.85,0,0,1,.59-.26,3.639,3.639,0,0,1,.641-.156,4.809,4.809,0,0,1,.717-.051,3.625,3.625,0,0,1,1.117.162,2.378,2.378,0,0,1,.857.476,2.092,2.092,0,0,1,.549.784A2.813,2.813,0,0,1,50.4,7.246a3.356,3.356,0,0,1-.136.993,3.215,3.215,0,0,1-.387.822,4.265,4.265,0,0,1-.606.724q-.355.343-.793.7-.368.3-.733.581t-.657.552a3.083,3.083,0,0,0-.473.54.967.967,0,0,0-.181.543v.032h4.107Zm4.393.152a2.542,2.542,0,0,1-2.219-1.162,5.92,5.92,0,0,1-.8-3.358,6.569,6.569,0,0,1,.832-3.65,2.714,2.714,0,0,1,2.4-1.238q3,0,3,4.666a6.142,6.142,0,0,1-.847,3.526A2.727,2.727,0,0,1,54.935,14.152Zm.146-8.233q-1.657,0-1.657,3.65,0,3.415,1.625,3.415,1.6,0,1.6-3.472Q56.649,5.919,55.081,5.919Zm7.071,8.233a2.542,2.542,0,0,1-2.219-1.162,5.92,5.92,0,0,1-.8-3.358,6.569,6.569,0,0,1,.832-3.65,2.714,2.714,0,0,1,2.4-1.238q3,0,3,4.666a6.142,6.142,0,0,1-.847,3.526A2.727,2.727,0,0,1,62.152,14.152ZM62.3,5.919q-1.657,0-1.657,3.65,0,3.415,1.625,3.415,1.6,0,1.6-3.472Q63.866,5.919,62.3,5.919Z" transform="translate(525 153)" fill="#fff"/>
    <path id="Path_25" data-name="Path 25" d="M11.476,13.619a5.518,5.518,0,0,1-2.558.533A4.183,4.183,0,0,1,5.744,12.9,4.556,4.556,0,0,1,4.55,9.62,4.779,4.779,0,0,1,5.893,6.091,4.593,4.593,0,0,1,9.286,4.745a5.56,5.56,0,0,1,2.19.375v1.5a3.908,3.908,0,0,0-2.031-.546,3.188,3.188,0,0,0-2.4.946,3.474,3.474,0,0,0-.917,2.526,3.313,3.313,0,0,0,.857,2.4,2.982,2.982,0,0,0,2.253.892,4.035,4.035,0,0,0,2.234-.609Zm4.443.533a3.222,3.222,0,0,1-2.4-.911,3.29,3.29,0,0,1-.9-2.415,3.424,3.424,0,0,1,.936-2.558,3.443,3.443,0,0,1,2.523-.92,3.118,3.118,0,0,1,2.374.9,3.457,3.457,0,0,1,.851,2.482,3.407,3.407,0,0,1-.917,2.491A3.3,3.3,0,0,1,15.919,14.152Zm.07-5.63a1.681,1.681,0,0,0-1.365.6,2.525,2.525,0,0,0-.5,1.663A2.378,2.378,0,0,0,14.63,12.4a1.706,1.706,0,0,0,1.358.587,1.618,1.618,0,0,0,1.336-.578,2.557,2.557,0,0,0,.467-1.644,2.6,2.6,0,0,0-.467-1.657A1.611,1.611,0,0,0,15.989,8.522ZM20.394,13.8V12.432a2.938,2.938,0,0,0,1.822.628q1.333,0,1.333-.787a.62.62,0,0,0-.114-.378,1.091,1.091,0,0,0-.308-.276,2.42,2.42,0,0,0-.457-.216q-.263-.1-.587-.216a6.216,6.216,0,0,1-.72-.336,2.177,2.177,0,0,1-.533-.4,1.522,1.522,0,0,1-.321-.511,1.882,1.882,0,0,1-.108-.667,1.54,1.54,0,0,1,.222-.828,1.931,1.931,0,0,1,.6-.6,2.861,2.861,0,0,1,.851-.368,3.894,3.894,0,0,1,.984-.124,4.473,4.473,0,0,1,1.612.273V8.909a2.718,2.718,0,0,0-1.574-.47,2.056,2.056,0,0,0-.5.057,1.3,1.3,0,0,0-.384.159.781.781,0,0,0-.248.244.583.583,0,0,0-.089.314.671.671,0,0,0,.089.355.807.807,0,0,0,.263.257,2.275,2.275,0,0,0,.419.2q.244.092.562.2a8.208,8.208,0,0,1,.752.349,2.542,2.542,0,0,1,.568.4,1.58,1.58,0,0,1,.362.521,1.767,1.767,0,0,1,.127.7,1.6,1.6,0,0,1-.229.863,1.9,1.9,0,0,1-.609.609,2.853,2.853,0,0,1-.879.359,4.567,4.567,0,0,1-1.051.117A4.426,4.426,0,0,1,20.394,13.8Zm9.439.133a2.552,2.552,0,0,1-1.136.216q-1.892,0-1.892-1.815V8.655H25.72V7.5h1.085V6l1.473-.419V7.5h1.555V8.655H28.278v3.25a1.281,1.281,0,0,0,.209.825.87.87,0,0,0,.7.248,1.012,1.012,0,0,0,.647-.216Zm1.879.209a.911.911,0,0,1-.647-.251.8.8,0,0,1-.267-.6.812.812,0,0,1,.267-.609.9.9,0,0,1,.647-.254.923.923,0,0,1,.657.254.807.807,0,0,1,.27.609.791.791,0,0,1-.27.6A.93.93,0,0,1,31.712,14.14Zm0-5.021a.911.911,0,0,1-.647-.251.8.8,0,0,1-.267-.6.812.812,0,0,1,.267-.609.9.9,0,0,1,.647-.254.923.923,0,0,1,.657.254.807.807,0,0,1,.27.609.791.791,0,0,1-.27.6A.93.93,0,0,1,31.712,9.119ZM42.731,4.9v5.878h1.352V12H42.731v2H41.3V12h-4.12V10.763q.559-.628,1.146-1.362t1.13-1.5Q40,7.138,40.465,6.37A13.989,13.989,0,0,0,41.246,4.9ZM41.3,10.775V6.954a21.091,21.091,0,0,1-1.368,2.171q-.676.927-1.266,1.65ZM50.679,14H44.966v-.7a2.646,2.646,0,0,1,.121-.809,3.274,3.274,0,0,1,.324-.711,3.961,3.961,0,0,1,.476-.628q.273-.3.584-.571t.635-.533q.324-.257.635-.517.292-.248.533-.486a3.242,3.242,0,0,0,.413-.492,2.227,2.227,0,0,0,.267-.536,1.906,1.906,0,0,0,.1-.613,1.651,1.651,0,0,0-.111-.632,1.228,1.228,0,0,0-.311-.451,1.328,1.328,0,0,0-.473-.273,1.857,1.857,0,0,0-.6-.092,2.752,2.752,0,0,0-1.136.26,3.889,3.889,0,0,0-1.111.781V5.577a4.643,4.643,0,0,1,.565-.365,3.85,3.85,0,0,1,.59-.26A3.639,3.639,0,0,1,47.1,4.8a4.809,4.809,0,0,1,.717-.051,3.625,3.625,0,0,1,1.117.162,2.378,2.378,0,0,1,.857.476,2.092,2.092,0,0,1,.549.784,2.813,2.813,0,0,1,.194,1.079,3.356,3.356,0,0,1-.136.993,3.215,3.215,0,0,1-.387.822,4.265,4.265,0,0,1-.606.724q-.355.343-.793.7-.368.3-.733.581t-.657.552a3.083,3.083,0,0,0-.473.54.967.967,0,0,0-.181.543v.032h4.107Zm4.393.152a2.542,2.542,0,0,1-2.219-1.162,5.92,5.92,0,0,1-.8-3.358,6.569,6.569,0,0,1,.832-3.65,2.714,2.714,0,0,1,2.4-1.238q3,0,3,4.666a6.142,6.142,0,0,1-.847,3.526A2.727,2.727,0,0,1,55.071,14.152Zm.146-8.233q-1.657,0-1.657,3.65,0,3.415,1.625,3.415,1.6,0,1.6-3.472Q56.785,5.919,55.217,5.919Zm7.071,8.233a2.542,2.542,0,0,1-2.219-1.162,5.92,5.92,0,0,1-.8-3.358,6.569,6.569,0,0,1,.832-3.65,2.714,2.714,0,0,1,2.4-1.238q3,0,3,4.666a6.142,6.142,0,0,1-.847,3.526A2.727,2.727,0,0,1,62.289,14.152Zm.146-8.233q-1.657,0-1.657,3.65,0,3.415,1.625,3.415,1.6,0,1.6-3.472Q64,5.919,62.435,5.919Z" transform="translate(712 184)" fill="#fff"/>
    <path id="Path_24" data-name="Path 24" d="M11.612,13.619a5.518,5.518,0,0,1-2.558.533A4.183,4.183,0,0,1,5.88,12.9,4.556,4.556,0,0,1,4.687,9.62,4.779,4.779,0,0,1,6.029,6.091,4.593,4.593,0,0,1,9.422,4.745a5.56,5.56,0,0,1,2.19.375v1.5a3.908,3.908,0,0,0-2.031-.546,3.188,3.188,0,0,0-2.4.946,3.474,3.474,0,0,0-.917,2.526,3.313,3.313,0,0,0,.857,2.4,2.982,2.982,0,0,0,2.253.892,4.035,4.035,0,0,0,2.234-.609Zm4.443.533a3.222,3.222,0,0,1-2.4-.911,3.29,3.29,0,0,1-.9-2.415,3.424,3.424,0,0,1,.936-2.558,3.443,3.443,0,0,1,2.523-.92,3.118,3.118,0,0,1,2.374.9,3.457,3.457,0,0,1,.851,2.482,3.407,3.407,0,0,1-.917,2.491A3.3,3.3,0,0,1,16.055,14.152Zm.07-5.63a1.681,1.681,0,0,0-1.365.6,2.525,2.525,0,0,0-.5,1.663,2.378,2.378,0,0,0,.508,1.609,1.706,1.706,0,0,0,1.358.587,1.618,1.618,0,0,0,1.336-.578,2.557,2.557,0,0,0,.467-1.644,2.6,2.6,0,0,0-.467-1.657A1.611,1.611,0,0,0,16.125,8.522ZM20.531,13.8V12.432a2.938,2.938,0,0,0,1.822.628q1.333,0,1.333-.787a.62.62,0,0,0-.114-.378,1.091,1.091,0,0,0-.308-.276,2.42,2.42,0,0,0-.457-.216q-.263-.1-.587-.216a6.216,6.216,0,0,1-.72-.336,2.177,2.177,0,0,1-.533-.4,1.522,1.522,0,0,1-.321-.511,1.882,1.882,0,0,1-.108-.667,1.54,1.54,0,0,1,.222-.828,1.931,1.931,0,0,1,.6-.6,2.861,2.861,0,0,1,.851-.368,3.894,3.894,0,0,1,.984-.124,4.473,4.473,0,0,1,1.612.273V8.909a2.718,2.718,0,0,0-1.574-.47,2.056,2.056,0,0,0-.5.057,1.3,1.3,0,0,0-.384.159.781.781,0,0,0-.248.244A.583.583,0,0,0,22,9.214a.671.671,0,0,0,.089.355.807.807,0,0,0,.263.257,2.275,2.275,0,0,0,.419.2q.244.092.562.2a8.208,8.208,0,0,1,.752.349,2.542,2.542,0,0,1,.568.4,1.58,1.58,0,0,1,.362.521,1.767,1.767,0,0,1,.127.7,1.6,1.6,0,0,1-.229.863,1.9,1.9,0,0,1-.609.609,2.853,2.853,0,0,1-.879.359,4.567,4.567,0,0,1-1.051.117A4.426,4.426,0,0,1,20.531,13.8Zm9.439.133a2.552,2.552,0,0,1-1.136.216q-1.892,0-1.892-1.815V8.655H25.856V7.5h1.085V6l1.473-.419V7.5h1.555V8.655H28.414v3.25a1.281,1.281,0,0,0,.209.825.87.87,0,0,0,.7.248,1.012,1.012,0,0,0,.647-.216Zm1.879.209a.911.911,0,0,1-.647-.251.8.8,0,0,1-.267-.6.812.812,0,0,1,.267-.609.9.9,0,0,1,.647-.254.923.923,0,0,1,.657.254.807.807,0,0,1,.27.609.791.791,0,0,1-.27.6A.93.93,0,0,1,31.848,14.14Zm0-5.021a.911.911,0,0,1-.647-.251.8.8,0,0,1-.267-.6.812.812,0,0,1,.267-.609.9.9,0,0,1,.647-.254.923.923,0,0,1,.657.254.807.807,0,0,1,.27.609.791.791,0,0,1-.27.6A.93.93,0,0,1,31.848,9.119ZM43.325,14H37.612v-.7a2.646,2.646,0,0,1,.121-.809,3.274,3.274,0,0,1,.324-.711,3.961,3.961,0,0,1,.476-.628q.273-.3.584-.571t.635-.533q.324-.257.635-.517.292-.248.533-.486a3.242,3.242,0,0,0,.413-.492,2.227,2.227,0,0,0,.267-.536,1.906,1.906,0,0,0,.1-.613,1.651,1.651,0,0,0-.111-.632,1.228,1.228,0,0,0-.311-.451,1.328,1.328,0,0,0-.473-.273,1.857,1.857,0,0,0-.6-.092,2.752,2.752,0,0,0-1.136.26,3.889,3.889,0,0,0-1.111.781V5.577a4.643,4.643,0,0,1,.565-.365,3.85,3.85,0,0,1,.59-.26,3.639,3.639,0,0,1,.641-.156,4.809,4.809,0,0,1,.717-.051,3.625,3.625,0,0,1,1.117.162,2.378,2.378,0,0,1,.857.476,2.092,2.092,0,0,1,.549.784,2.813,2.813,0,0,1,.194,1.079,3.356,3.356,0,0,1-.136.993,3.215,3.215,0,0,1-.387.822,4.265,4.265,0,0,1-.606.724q-.355.343-.793.7-.368.3-.733.581t-.657.552a3.083,3.083,0,0,0-.473.54.967.967,0,0,0-.181.543v.032h4.107Zm1.866-.209V12.375a3.22,3.22,0,0,0,1.815.6,2.247,2.247,0,0,0,1.492-.473,1.56,1.56,0,0,0,.565-1.26,1.422,1.422,0,0,0-.574-1.206,2.7,2.7,0,0,0-1.647-.432q-.368,0-1.492.076L45.674,4.9h4.481V6.154H46.9l-.152,2.279q.438-.025.793-.025a3.143,3.143,0,0,1,2.238.743,2.653,2.653,0,0,1,.79,2.031,2.777,2.777,0,0,1-.9,2.168,3.575,3.575,0,0,1-2.485.816A4.113,4.113,0,0,1,45.191,13.791Zm9.744.362a2.542,2.542,0,0,1-2.219-1.162,5.92,5.92,0,0,1-.8-3.358,6.569,6.569,0,0,1,.832-3.65,2.714,2.714,0,0,1,2.4-1.238q3,0,3,4.666a6.142,6.142,0,0,1-.847,3.526A2.727,2.727,0,0,1,54.935,14.152Zm.146-8.233q-1.657,0-1.657,3.65,0,3.415,1.625,3.415,1.6,0,1.6-3.472Q56.649,5.919,55.081,5.919Zm7.071,8.233a2.542,2.542,0,0,1-2.219-1.162,5.92,5.92,0,0,1-.8-3.358,6.569,6.569,0,0,1,.832-3.65,2.714,2.714,0,0,1,2.4-1.238q3,0,3,4.666a6.142,6.142,0,0,1-.847,3.526A2.727,2.727,0,0,1,62.152,14.152ZM62.3,5.919q-1.657,0-1.657,3.65,0,3.415,1.625,3.415,1.6,0,1.6-3.472Q63.866,5.919,62.3,5.919Z" transform="translate(608 326)" fill="#fff"/>
  </g>
</svg>
